<?xml version="1.0" standalone="no"?>
<!DOCTYPE svg PUBLIC "-//W3C//DTD SVG 20010904//EN"
 "http://www.w3.org/TR/2001/REC-SVG-20010904/DTD/svg10.dtd">
<svg version="1.0" xmlns="http://www.w3.org/2000/svg"
 width="19.000000pt" height="22.000000pt" viewBox="0 0 19.000000 22.000000"
 preserveAspectRatio="xMidYMid meet">
<metadata>
Created by potrace 1.12, written by Peter Selinger 2001-2015
</metadata>
<g transform="translate(0.000000,22.000000) scale(0.100000,-0.100000)"
fill="#000000" stroke="none">
<path d="M90 200 c0 -5 20 -10 45 -10 25 0 45 5 45 10 0 6 -20 10 -45 10 -25
0 -45 -4 -45 -10z"/>
<path d="M10 90 l0 -80 85 0 85 0 0 80 0 80 -85 0 -85 0 0 -80z m124 49 c31
-25 34 -61 6 -89 -39 -39 -110 -11 -110 44 0 25 41 66 65 66 7 0 24 -9 39 -21z"/>
<path d="M71 106 c-9 -11 -8 -17 4 -30 22 -21 43 -11 37 20 -5 27 -23 31 -41
10z"/>
</g>
</svg>
